<svg xmlns="http://www.w3.org/2000/svg" viewBox="0 0 512 512" width="512" height="512">

  <!-- Drop shadow under character -->
  <ellipse cx="230" cy="498" rx="130" ry="14" fill="rgba(180,130,80,0.35)"/>

  <!-- ═══════════════════════════════════════════
       ORE SACK (behind body)
  ════════════════════════════════════════════ -->
  <!-- Sack body -->
  <path d="M310 195 Q295 200 285 240 Q278 275 282 330 Q285 380 296 415 Q308 445 330 450 Q365 455 400 440 Q432 424 440 390 Q452 345 445 295 Q438 245 425 215 Q415 198 395 192 Q355 182 310 195Z"
        fill="#7B4A1E" stroke="#1a0900" stroke-width="9" stroke-linejoin="round"/>
  <!-- Sack highlight left -->
  <path d="M305 220 Q295 270 298 330 Q300 370 310 400" fill="none" stroke="#9B6830" stroke-width="14" stroke-linecap="round" opacity="0.45"/>
  <!-- Sack dark spots -->
  <ellipse cx="370" cy="320" rx="22" ry="28" fill="#5a3010" opacity="0.4"/>
  <ellipse cx="340" cy="380" rx="18" ry="22" fill="#5a3010" opacity="0.35"/>
  <ellipse cx="408" cy="360" rx="16" ry="20" fill="#5a3010" opacity="0.35"/>
  <ellipse cx="355" cy="270" rx="14" ry="18" fill="#9B6830" opacity="0.3"/>

  <!-- Sack tie / neck -->
  <path d="M308 198 Q330 185 365 183 Q395 182 415 195 Q422 210 412 220 Q390 210 365 208 Q338 207 315 218 Z"
        fill="#5a3010" stroke="#1a0900" stroke-width="8"/>

  <!-- Gold nuggets in sack opening -->
  <!-- nugget 1 (large, left) -->
  <path d="M295 185 Q300 165 320 158 Q340 152 352 162 Q362 172 358 188 Q345 198 320 198 Q302 196 295 185Z"
        fill="#F0B800" stroke="#1a0900" stroke-width="7"/>
  <path d="M302 172 Q315 162 335 163 Q348 165 353 174" fill="none" stroke="#FFD840" stroke-width="5" stroke-linecap="round" opacity="0.7"/>
  <!-- nugget 2 (center) -->
  <path d="M340 158 Q348 138 368 132 Q385 128 395 140 Q402 152 395 165 Q380 175 360 172 Q344 168 340 158Z"
        fill="#F0B800" stroke="#1a0900" stroke-width="7"/>
  <path d="M348 144 Q362 135 380 138 Q390 142 393 150" fill="none" stroke="#FFD840" stroke-width="5" stroke-linecap="round" opacity="0.7"/>
  <!-- nugget 3 (right) -->
  <path d="M385 145 Q392 126 410 122 Q426 120 434 133 Q440 145 432 157 Q418 165 400 162 Q386 157 385 145Z"
        fill="#F0B800" stroke="#1a0900" stroke-width="7"/>
  <path d="M393 131 Q406 124 420 128" fill="none" stroke="#FFD840" stroke-width="4" stroke-linecap="round" opacity="0.7"/>
  <!-- nugget 4 (small, upper-left) -->
  <path d="M320 160 Q325 145 340 141 Q352 138 357 148 Q360 158 350 165 Q336 168 325 163Z"
        fill="#E8A800" stroke="#1a0900" stroke-width="6"/>
  <!-- nugget 5 (small, upper-right) -->
  <path d="M408 130 Q412 116 424 113 Q434 111 438 121 Q440 131 432 136 Q420 139 412 135Z"
        fill="#E8A800" stroke="#1a0900" stroke-width="6"/>

  <!-- ═══════════════════════════════════════════
       LEGS
  ════════════════════════════════════════════ -->
  <!-- Left leg -->
  <path d="M158 365 Q152 400 150 435 Q149 455 155 465 Q162 472 180 474 Q200 475 212 468 Q222 460 222 440 Q222 415 220 380 Q218 368 210 362 Z"
        fill="#5C330F" stroke="#1a0900" stroke-width="9" stroke-linejoin="round"/>
  <!-- Right leg -->
  <path d="M240 362 Q238 395 238 430 Q238 455 246 465 Q254 473 272 474 Q292 475 302 465 Q310 455 308 435 Q306 408 300 375 Q296 365 288 362 Z"
        fill="#5C330F" stroke="#1a0900" stroke-width="9" stroke-linejoin="round"/>
  <!-- Leg crease/shading -->
  <path d="M170 375 Q165 410 163 445" fill="none" stroke="#3a1e08" stroke-width="5" stroke-linecap="round" opacity="0.4"/>
  <path d="M255 372 Q252 405 251 440" fill="none" stroke="#3a1e08" stroke-width="5" stroke-linecap="round" opacity="0.4"/>

  <!-- ═══════════════════════════════════════════
       BOOTS
  ════════════════════════════════════════════ -->
  <!-- Left boot -->
  <path d="M148 455 Q146 470 148 480 Q152 492 168 497 Q185 502 215 498 Q235 493 240 480 Q243 468 240 456 Q225 450 195 450 Q165 450 148 455Z"
        fill="#3D1E08" stroke="#1a0900" stroke-width="9" stroke-linejoin="round"/>
  <!-- Left boot toe highlight -->
  <path d="M155 468 Q170 462 200 465" fill="none" stroke="#5a3010" stroke-width="5" stroke-linecap="round" opacity="0.5"/>
  <!-- Right boot -->
  <path d="M238 453 Q235 468 237 479 Q241 492 260 497 Q278 502 305 497 Q322 492 326 479 Q328 468 324 455 Q308 449 278 449 Q252 449 238 453Z"
        fill="#3D1E08" stroke="#1a0900" stroke-width="9" stroke-linejoin="round"/>
  <!-- Right boot toe highlight -->
  <path d="M246 467 Q262 461 295 465" fill="none" stroke="#5a3010" stroke-width="5" stroke-linecap="round" opacity="0.5"/>

  <!-- ═══════════════════════════════════════════
       BODY / SHIRT (red-orange)
  ════════════════════════════════════════════ -->
  <path d="M125 260 Q115 300 118 345 Q120 370 135 378 Q160 385 195 385 Q230 385 265 382 Q295 378 305 365 Q318 345 315 305 Q312 270 305 250 Q295 238 270 235 Q245 232 215 233 Q178 234 152 240 Q132 248 125 260Z"
        fill="#C0391A" stroke="#1a0900" stroke-width="9" stroke-linejoin="round"/>
  <!-- Shirt V-neck -->
  <path d="M192 238 L215 278 L238 238" fill="none" stroke="#1a0900" stroke-width="8" stroke-linejoin="round" stroke-linecap="round"/>
  <!-- Shirt highlight (left side) -->
  <path d="M145 270 Q140 305 143 345" fill="none" stroke="#d44a25" stroke-width="16" stroke-linecap="round" opacity="0.3"/>

  <!-- ═══════════════════════════════════════════
       LEFT ARM
  ════════════════════════════════════════════ -->
  <path d="M122 255 Q108 275 104 310 Q100 340 108 358 Q118 372 135 368 Q148 363 152 345 Q158 318 158 288 Q158 265 148 252 Z"
        fill="#C0391A" stroke="#1a0900" stroke-width="9" stroke-linejoin="round"/>
  <!-- Left hand -->
  <path d="M100 352 Q96 368 100 380 Q106 392 122 394 Q138 394 144 382 Q150 368 146 355 Q138 345 122 344 Q108 344 100 352Z"
        fill="#D4905A" stroke="#1a0900" stroke-width="8" stroke-linejoin="round"/>
  <!-- Left hand fingers hint -->
  <path d="M104 365 Q115 360 130 363" fill="none" stroke="#a06030" stroke-width="4" stroke-linecap="round" opacity="0.5"/>
  <path d="M104 374 Q115 370 132 373" fill="none" stroke="#a06030" stroke-width="4" stroke-linecap="round" opacity="0.5"/>

  <!-- ═══════════════════════════════════════════
       RIGHT ARM (raised, holding sack strap)
  ════════════════════════════════════════════ -->
  <path d="M302 248 Q315 265 322 295 Q328 320 322 342 Q316 358 302 360 Q288 360 282 345 Q276 325 278 295 Q280 268 290 250 Z"
        fill="#C0391A" stroke="#1a0900" stroke-width="9" stroke-linejoin="round"/>
  <!-- Right hand/fist (gripping sack) -->
  <path d="M278 340 Q274 355 278 368 Q284 380 298 381 Q312 381 318 369 Q323 356 319 342 Q312 332 298 331 Q284 331 278 340Z"
        fill="#D4905A" stroke="#1a0900" stroke-width="8" stroke-linejoin="round"/>
  <!-- Fist knuckles hint -->
  <path d="M281 350 Q295 346 312 350" fill="none" stroke="#a06030" stroke-width="4" stroke-linecap="round" opacity="0.5"/>

  <!-- ═══════════════════════════════════════════
       NECK
  ════════════════════════════════════════════ -->
  <path d="M196 210 Q195 225 195 238 Q200 242 215 243 Q230 243 236 238 Q238 225 236 210 Q230 205 215 205 Q200 205 196 210Z"
        fill="#D4905A" stroke="#1a0900" stroke-width="7"/>

  <!-- ═══════════════════════════════════════════
       HEAD
  ════════════════════════════════════════════ -->
  <!-- Head shape - slightly square/chubby -->
  <path d="M118 148 Q112 180 115 210 Q118 238 138 248 Q165 258 215 258 Q262 258 285 248 Q304 238 308 212 Q312 185 306 155 Q298 125 275 112 Q252 100 215 100 Q178 100 152 112 Q128 125 118 148Z"
        fill="#E0955A" stroke="#1a0900" stroke-width="9" stroke-linejoin="round"/>
  <!-- Head shading right side -->
  <path d="M285 148 Q295 175 292 210 Q290 232 278 248" fill="none" stroke="#c07040" stroke-width="14" stroke-linecap="round" opacity="0.25"/>
  <!-- Left ear -->
  <path d="M118 162 Q108 170 106 183 Q105 196 112 204 Q120 210 130 207 Q140 202 142 190 Q143 178 138 168 Q132 160 118 162Z"
        fill="#D4905A" stroke="#1a0900" stroke-width="7" stroke-linejoin="round"/>
  <!-- Ear inner -->
  <path d="M118 170 Q113 178 113 188 Q114 196 120 200" fill="none" stroke="#c07040" stroke-width="5" stroke-linecap="round" opacity="0.55"/>

  <!-- Hair (brown, sides showing below hat) -->
  <path d="M125 148 Q120 162 118 172" fill="none" stroke="#4a2a0a" stroke-width="12" stroke-linecap="round"/>
  <path d="M302 152 Q308 165 306 178" fill="none" stroke="#4a2a0a" stroke-width="12" stroke-linecap="round"/>

  <!-- ═══════════════════════════════════════════
       FRECKLES
  ════════════════════════════════════════════ -->
  <circle cx="170" cy="180" r="5.5" fill="#b06830" opacity="0.55"/>
  <circle cx="183" cy="192" r="4.5" fill="#b06830" opacity="0.55"/>
  <circle cx="160" cy="192" r="4"   fill="#b06830" opacity="0.5"/>
  <circle cx="175" cy="167" r="3.5" fill="#b06830" opacity="0.45"/>
  <circle cx="193" cy="175" r="3"   fill="#b06830" opacity="0.45"/>
  <!-- Right-side freckles -->
  <circle cx="248" cy="178" r="5"   fill="#b06830" opacity="0.55"/>
  <circle cx="260" cy="190" r="4.5" fill="#b06830" opacity="0.55"/>
  <circle cx="242" cy="190" r="4"   fill="#b06830" opacity="0.5"/>
  <circle cx="256" cy="168" r="3.5" fill="#b06830" opacity="0.45"/>

  <!-- ═══════════════════════════════════════════
       EYEBROWS
  ════════════════════════════════════════════ -->
  <path d="M150 135 Q166 128 182 133" fill="none" stroke="#2a1208" stroke-width="7" stroke-linecap="round"/>
  <path d="M238 132 Q255 126 268 132" fill="none" stroke="#2a1208" stroke-width="7" stroke-linecap="round"/>

  <!-- ═══════════════════════════════════════════
       EYES  (small dot style like the image)
  ════════════════════════════════════════════ -->
  <!-- Left eye -->
  <ellipse cx="166" cy="152" rx="9" ry="11" fill="#1a0a00"/>
  <circle cx="162" cy="148" r="3.5" fill="white" opacity="0.7"/>
  <!-- Right eye -->
  <ellipse cx="254" cy="150" rx="9" ry="11" fill="#1a0a00"/>
  <circle cx="250" cy="146" r="3.5" fill="white" opacity="0.7"/>

  <!-- ═══════════════════════════════════════════
       NOSE
  ════════════════════════════════════════════ -->
  <!-- Subtle button nose -->
  <path d="M204 185 Q210 192 218 185" fill="none" stroke="#a06030" stroke-width="5" stroke-linecap="round"/>

  <!-- ═══════════════════════════════════════════
       MOUTH (slight smile)
  ════════════════════════════════════════════ -->
  <path d="M175 208 Q200 220 238 208" fill="none" stroke="#1a0a00" stroke-width="6" stroke-linecap="round"/>

  <!-- ═══════════════════════════════════════════
       HARD HAT
  ════════════════════════════════════════════ -->
  <!-- Hat brim (wide, flat) -->
  <path d="M100 148 Q102 136 120 130 Q165 120 215 118 Q262 118 298 125 Q318 130 322 140 Q326 152 315 158 Q290 150 255 147 Q228 145 215 145 Q195 145 168 147 Q140 150 120 158 Q106 162 100 148Z"
        fill="#D4A200" stroke="#1a0900" stroke-width="9" stroke-linejoin="round"/>
  <!-- Hat dome -->
  <path d="M120 148 Q122 118 130 100 Q142 78 170 68 Q192 60 215 60 Q240 60 262 68 Q288 80 298 102 Q308 122 308 148 Q290 140 255 137 Q230 135 215 135 Q198 135 175 137 Q148 140 120 148Z"
        fill="#E8B800" stroke="#1a0900" stroke-width="9" stroke-linejoin="round"/>
  <!-- Hat dome highlight -->
  <path d="M148 80 Q172 65 215 62 Q254 62 278 78" fill="none" stroke="#F8D840" stroke-width="14" stroke-linecap="round" opacity="0.5"/>
  <!-- Hat band (dark line at base of dome) -->
  <path d="M120 140 Q165 133 215 132 Q262 132 305 138" fill="none" stroke="#B88800" stroke-width="7" stroke-linecap="round" opacity="0.8"/>

  <!-- ═══════════════════════════════════════════
       HEADLAMP (left side of hat)
  ════════════════════════════════════════════ -->
  <!-- Strap around hat -->
  <path d="M122 128 Q138 118 158 118" fill="none" stroke="#1a0900" stroke-width="10" stroke-linecap="round"/>
  <!-- Lamp housing (round, dark) -->
  <circle cx="128" cy="122" r="24" fill="#2a1a08" stroke="#1a0900" stroke-width="8"/>
  <!-- Lamp outer ring (metal) -->
  <circle cx="128" cy="122" r="19" fill="#3a2a18" stroke="#5a4030" stroke-width="3"/>
  <!-- Lamp glass -->
  <circle cx="128" cy="122" r="14" fill="#F5F5E8"/>
  <!-- Lamp inner glow -->
  <circle cx="128" cy="122" r="10" fill="#FFFFF0"/>
  <!-- Lamp specular highlight -->
  <circle cx="123" cy="117" r="5" fill="white" opacity="0.85"/>
</svg>
